<?xml version="1.0" encoding="utf-8"?>
<svg style="fill:none;stroke:none;fill-rule:evenodd;clip-rule:evenodd;stroke-linecap:round;stroke-linejoin:round;stroke-miterlimit:1.5;" version="1.1" xmlns="http://www.w3.org/2000/svg" width="1203" height="619" viewBox="-265.786 -33.351 1202.934 595.112">
  <style class="text-font-style fontImports" data-font-family="Roboto">@import url(https://fonts.googleapis.com/css2?family=Roboto:wght@400;700&amp;amp;display=block);</style>
  <g id="items" style="isolation: isolate" transform="matrix(1, 0, 0, 1, -246.287205, -24.371838)">
    <g id="blend" style="mix-blend-mode: normal">
      <g id="g-root-tf_1hbybr115e9rm6-fill" data-item-order="998883943">
        <g id="tf_1hbybr115e9rm6-fill-merged" stroke="none" fill="#ffffff" fill-opacity="1">
          <g>
            <path d="M 0 0 L 0 619 L 0 0"/>
            <rect style="transform-box: fill-box; transform-origin: 50% 50%;" transform="matrix(1, 0, 0, 1, -0.00000477, 0.00000429)" x="3.755" y="6.008" width="1135.49" height="559.484" rx="48.471" ry="48.471"/>
          </g>
        </g>
      </g>
      <g id="g-root-sy_1_cu_Vector_m9u9z115eb5sb-fill" data-item-order="999763706" transform="translate(309, 455)">
        <g id="sy_1_cu_Vector_m9u9z115eb5sb-fill-merged" stroke="none" fill="#4e88e7" fill-opacity="1">
          <g>
            <path d="M143.5 10 H73C71.343 10 70 11.343 70 13C70 14.657 71.343 16 73 16 H76 V34 H43C41.343 34 40 35.343 40 37C40 38.657 41.343 40 43 40 H46 V58 H13C11.343 58 10 59.343 10 61C10 62.657 11.343 64 13 64 H16 V82 H53.5L143.5 10"/>
          </g>
        </g>
      </g>
      <g id="g-root-sy_2_cu_Vector_hu0rul15eb6kk-fill" data-item-order="999763710" transform="translate(400, 383)">
        <g id="sy_2_cu_Vector_hu0rul15eb6kk-fill-merged" stroke="none" fill="#1eabda" fill-opacity="1">
          <g>
            <path d="M143.5 10 H73C71.343 10 70 11.343 70 13C70 14.657 71.343 16 73 16 H76 V34 H43C41.343 34 40 35.343 40 37C40 38.657 41.343 40 43 40 H46 V58 H13C11.343 58 10 59.343 10 61C10 62.657 11.343 64 13 64 H16 V82 H53.5L143.5 10"/>
          </g>
        </g>
      </g>
      <g id="g-root-sy_3_cu_Vector_8ydrlp15eb7d9-fill" data-item-order="999763714" transform="translate(490, 311)">
        <g id="sy_3_cu_Vector_8ydrlp15eb7d9-fill-merged" stroke="none" fill="#3cc583" fill-opacity="1">
          <g>
            <path d="M143.5 10 H73C71.343 10 70 11.343 70 13C70 14.657 71.343 16 73 16 H76 V34 H43C41.343 34 40 35.343 40 37C40 38.657 41.343 40 43 40 H46 V58 H13C11.343 58 10 59.343 10 61C10 62.657 11.343 64 13 64 H16 V82 H53.5L143.5 10"/>
          </g>
        </g>
      </g>
      <g id="g-root-sy_4_cu_Vector_4j6qkd15eb4zq-fill" data-item-order="999763718" transform="translate(580, 239)">
        <g id="sy_4_cu_Vector_4j6qkd15eb4zq-fill-merged" stroke="none" fill="#92bd39" fill-opacity="1">
          <g>
            <path d="M143.5 10 H73C71.343 10 70 11.343 70 13C70 14.657 71.343 16 73 16 H76 V34 H43C41.343 34 40 35.343 40 37C40 38.657 41.343 40 43 40 H46 V58 H13C11.343 58 10 59.343 10 61C10 62.657 11.343 64 13 64 H16 V82 H53.5L143.5 10"/>
          </g>
        </g>
      </g>
      <g id="g-root-sy_5_cu_Vector_1uonsal15eb5lb-fill" data-item-order="999763722" transform="translate(670, 167)">
        <g id="sy_5_cu_Vector_1uonsal15eb5lb-fill-merged" stroke="none" fill="#e0cb15" fill-opacity="1">
          <g>
            <path d="M143.5 10L53.5 82 H16 V64 H13C11.343 64 10 62.657 10 61C10 59.343 11.343 58 13 58 H46 V40 H43C41.343 40 40 38.657 40 37C40 35.343 41.343 34 43 34 H76 V16 H73C71.343 16 70 14.657 70 13C70 11.343 71.343 10 73 10 H143.5"/>
          </g>
        </g>
      </g>
      <g id="g-root-sy_6_cu_Vector_1q8ua6515eb6dk-fill" data-item-order="999763726" transform="translate(760, 95)">
        <g id="sy_6_cu_Vector_1q8ua6515eb6dk-fill-merged" stroke="none" fill="#de8431" fill-opacity="1">
          <g>
            <path d="M106 40L53.5 82 H16 V64 H13C11.343 64 10 62.657 10 61C10 59.343 11.343 58 13 58 H46 V40 H43C41.343 40 40 38.657 40 37C40 35.343 41.343 34 43 34 H76 V16 H73C71.343 16 70 14.657 70 13C70 11.343 71.343 10 73 10 H106 V40"/>
          </g>
        </g>
      </g>
      <g id="g-root-tx_postproc_146435p15ei70g-fill" data-item-order="1000000000" transform="translate(610, 47)">
        <g id="tx_postproc_146435p15ei70g-fill-merged" stroke="none" fill="#484848" fill-opacity="1">
          <g>
            <text style="font: 20px Roboto, sans-serif; white-space: pre;" font-size="20px" font-family="Roboto, sans-serif"><tspan x="18.81" y="34" dominant-baseline="ideographic">Post Processing</tspan></text>
          </g>
        </g>
      </g>
      <g id="g-root-ic_filt_zmjqil15eb6dm-fill" data-item-order="1000000000" transform="translate(778, 35)"/>
      <g id="g-root-ic_48px_1cxdrst15eclcb-fill" data-item-order="1000000000" transform="translate(688, 107)"/>
      <g id="g-root-tx_labeling_hzn1ml15ei689-fill" data-item-order="1000000000" transform="translate(592, 119)">
        <g id="tx_labeling_hzn1ml15ei689-fill-merged" stroke="none" fill="#484848" fill-opacity="1">
          <g>
            <text style="font: 20px Roboto, sans-serif; white-space: pre;" font-size="20px" font-family="Roboto, sans-serif"><tspan x="16.5" y="34" dominant-baseline="ideographic">Labeling</tspan></text>
          </g>
        </g>
      </g>
      <g id="g-root-tx_clusteri_8d14t15ei8le-fill" data-item-order="1000000000" transform="translate(490, 191)">
        <g id="tx_clusteri_8d14t15ei8le-fill-merged" stroke="none" fill="#484848" fill-opacity="1">
          <g>
            <text style="font: 20px Roboto, sans-serif; white-space: pre;" font-size="20px" font-family="Roboto, sans-serif"><tspan x="13.7" y="34" dominant-baseline="ideographic">Clustering</tspan></text>
          </g>
        </g>
      </g>
      <g id="g-root-ic_scat_de79q515edy4k-fill" data-item-order="1000000000" transform="translate(598, 179)"/>
      <g id="g-root-tx_topicsub_18n6jgd15ei8eb-fill" data-item-order="1000000000" transform="translate(328, 251)">
        <g id="tx_topicsub_18n6jgd15ei8eb-fill-merged" stroke="none" fill="#484848" fill-opacity="1">
          <g>
            <text style="font: 20px Roboto, sans-serif; white-space: pre;" font-size="20px" font-family="Roboto, sans-serif"><tspan x="16.1" y="34" dominant-baseline="ideographic">Topic &amp; Sub-Topic </tspan><tspan x="86.58" y="58" dominant-baseline="ideographic">Extraction</tspan></text>
          </g>
        </g>
      </g>
      <g id="g-root-ic_orga_1hbbunx15efd39-fill" data-item-order="1000000000" transform="translate(508, 251)"/>
      <g id="g-root-tx_preproce_i0vzst15ei8ec-fill" data-item-order="1000000000" transform="translate(274, 335)">
        <g id="tx_preproce_i0vzst15ei8ec-fill-merged" stroke="none" fill="#484848" fill-opacity="1">
          <g>
            <text style="font: 20px Roboto, sans-serif; white-space: pre;" font-size="20px" font-family="Roboto, sans-serif"><tspan x="12.1" y="34" dominant-baseline="ideographic">Preprocessing</tspan></text>
          </g>
        </g>
      </g>
      <g id="g-root-ic_broo_vc3h15egrgu-fill" data-item-order="1000000000" transform="translate(418, 323)"/>
      <g id="g-root-ic_1_1qegjy515egsnb-fill" data-item-order="1000000000" transform="translate(328, 395)"/>
      <g id="g-root-tx_datasour_1uljev115ejlzh-fill" data-item-order="1000000000" transform="translate(184, 407)">
        <g id="tx_datasour_1uljev115ejlzh-fill-merged" stroke="none" fill="#484848" fill-opacity="1">
          <g>
            <text style="font: 20px Roboto, sans-serif; white-space: pre;" font-size="20px" font-family="Roboto, sans-serif"><tspan x="21.31" y="34" dominant-baseline="ideographic">Data Sources</tspan></text>
          </g>
        </g>
      </g>
      <g id="g-root-tf_1hbybr115e9rm6-stroke" data-item-order="998883943"/>
      <g id="g-root-sy_1_cu_Vector_m9u9z115eb5sb-stroke" data-item-order="999763706" transform="translate(309, 455)">
        <g id="sy_1_cu_Vector_m9u9z115eb5sb-stroke" fill="none" stroke-linecap="round" stroke-linejoin="round" stroke-miterlimit="4" stroke="#ffffff" stroke-width="2" stroke-opacity="1">
          <g>
            <path d="M 143.5 10L 73 10C 71.3432 10 70 11.3431 70 13C 70 14.6569 71.3432 16 73 16L 76 16L 76 34L 43 34C 41.3431 34 40 35.3431 40 37C 40 38.6569 41.3431 40 43 40L 46 40L 46 58L 13 58C 11.3431 58 10 59.3431 10 61C 10 62.6569 11.3431 64 13 64L 16 64L 16 82L 53.5 82L 143.5 10Z"/>
          </g>
        </g>
      </g>
      <g id="g-root-sy_2_cu_Vector_hu0rul15eb6kk-stroke" data-item-order="999763710" transform="translate(400, 383)">
        <g id="sy_2_cu_Vector_hu0rul15eb6kk-stroke" fill="none" stroke-linecap="round" stroke-linejoin="round" stroke-miterlimit="4" stroke="#ffffff" stroke-width="2" stroke-opacity="1">
          <g>
            <path d="M 143.5 10L 73 10C 71.3431 10 70 11.3431 70 13C 70 14.6569 71.3431 16 73 16L 76 16L 76 34L 43 34C 41.3431 34 40 35.3431 40 37C 40 38.6569 41.3431 40 43 40L 46 40L 46 58L 13 58C 11.3431 58 10 59.3431 10 61C 10 62.6569 11.3431 64 13 64L 16 64L 16 82L 53.5 82L 143.5 10Z"/>
          </g>
        </g>
      </g>
      <g id="g-root-sy_3_cu_Vector_8ydrlp15eb7d9-stroke" data-item-order="999763714" transform="translate(490, 311)">
        <g id="sy_3_cu_Vector_8ydrlp15eb7d9-stroke" fill="none" stroke-linecap="round" stroke-linejoin="round" stroke-miterlimit="4" stroke="#ffffff" stroke-width="2" stroke-opacity="1">
          <g>
            <path d="M 143.5 10L 73 10C 71.3431 10 70 11.3431 70 13C 70 14.6569 71.3431 16 73 16L 76 16L 76 34L 43 34C 41.3431 34 40 35.3431 40 37C 40 38.6569 41.3431 40 43 40L 46 40L 46 58L 13 58C 11.3431 58 10 59.3431 10 61C 10 62.6569 11.3431 64 13 64L 16 64L 16 82L 53.5 82L 143.5 10Z"/>
          </g>
        </g>
      </g>
      <g id="g-root-sy_4_cu_Vector_4j6qkd15eb4zq-stroke" data-item-order="999763718" transform="translate(580, 239)">
        <g id="sy_4_cu_Vector_4j6qkd15eb4zq-stroke" fill="none" stroke-linecap="round" stroke-linejoin="round" stroke-miterlimit="4" stroke="#ffffff" stroke-width="2" stroke-opacity="1">
          <g>
            <path d="M 143.5 10L 73 10C 71.3431 10 70 11.3431 70 13C 70 14.6569 71.3431 16 73 16L 76 16L 76 34L 43 34C 41.3431 34 40 35.3431 40 37C 40 38.6569 41.3431 40 43 40L 46 40L 46 58L 13 58C 11.3431 58 10 59.3431 10 61C 10 62.6569 11.3431 64 13 64L 16 64L 16 82L 53.5 82L 143.5 10Z"/>
          </g>
        </g>
      </g>
      <g id="g-root-sy_5_cu_Vector_1uonsal15eb5lb-stroke" data-item-order="999763722" transform="translate(670, 167)">
        <g id="sy_5_cu_Vector_1uonsal15eb5lb-stroke" fill="none" stroke-linecap="round" stroke-linejoin="round" stroke-miterlimit="4" stroke="#ffffff" stroke-width="2" stroke-opacity="1">
          <g>
            <path d="M 143.5 10L 53.5 82L 16 82L 16 64L 13 64C 11.3431 64 10 62.6569 10 61C 10 59.3431 11.3431 58 13 58L 46 58L 46 40L 43 40C 41.3431 40 40 38.6569 40 37C 40 35.3431 41.3431 34 43 34L 76 34L 76 16L 73 16C 71.3431 16 70 14.6569 70 13C 70 11.3431 71.3431 10 73 10L 143.5 10Z"/>
          </g>
        </g>
      </g>
      <g id="g-root-sy_6_cu_Vector_1q8ua6515eb6dk-stroke" data-item-order="999763726" transform="translate(760, 95)">
        <g id="sy_6_cu_Vector_1q8ua6515eb6dk-stroke" fill="none" stroke-linecap="round" stroke-linejoin="round" stroke-miterlimit="4" stroke="#ffffff" stroke-width="2" stroke-opacity="1">
          <g>
            <path d="M 106 40L 53.5 82L 16 82L 16 64L 13 64C 11.3431 64 10 62.6569 10 61C 10 59.3431 11.3431 58 13 58L 46 58L 46 40L 43 40C 41.3431 40 40 38.6569 40 37C 40 35.3431 41.3431 34 43 34L 76 34L 76 16L 73 16C 71.3431 16 70 14.6569 70 13C 70 11.3431 71.3431 10 73 10L 106 10L 106 40Z"/>
          </g>
        </g>
      </g>
      <g id="g-root-tx_postproc_146435p15ei70g-stroke" data-item-order="1000000000" transform="translate(610, 47)"/>
      <g id="g-root-ic_filt_zmjqil15eb6dm-stroke" data-item-order="1000000000" transform="translate(778, 35)">
        <g id="ic_filt_zmjqil15eb6dm-stroke" fill="none" stroke-linecap="round" stroke-linejoin="round" stroke-miterlimit="4" stroke="#484848" stroke-width="2" stroke-opacity="1">
          <g>
            <path d="M 10 10M 38.969601 36.5L 55.569599 16.099979C 56.169601 15.49998 56.169601 14.50002 55.7696 13.70002C 55.369598 12.90002 54.569599 12.5 53.7696 12.5L 14.169621 12.5C 13.36962 12.5 12.56962 12.90002 12.169621 13.70002C 11.76963 14.50002 11.969642 15.29998 12.36964 16.099979L 28.96966 36.5M 38.969601 36.5L 38.969601 50.5L 28.96966 55.5L 28.96966 36.5M 47.875 25.5L 19.96966 25.5"/>
          </g>
        </g>
      </g>
      <g id="g-root-ic_48px_1cxdrst15eclcb-stroke" data-item-order="1000000000" transform="translate(688, 107)">
        <g id="ic_48px_1cxdrst15eclcb-stroke" fill="none" stroke-linecap="round" stroke-linejoin="round" stroke-miterlimit="4" stroke="#484848" stroke-width="2" stroke-opacity="1">
          <g>
            <path d="M 43.084 28.098L 46.683998 24.424C 47.522617 23.471119 48.0158 22.263523 48.084 20.995998L 48.084 12.996C 48.084 11.891431 47.188568 10.996 46.084 10.996L 37.568001 11.01C 36.302147 11.080307 35.098015 11.579739 34.153999 12.426L 12.498 34.082001C 11.717237 34.862999 11.717237 36.128998 12.498 36.91L 22.17 46.582001C 22.543736 46.955734 23.051384 47.164532 23.57992 47.1619C 24.108456 47.159271 24.614 46.945435 24.983999 46.567997L 27.084 44.424M 38.084 17.996C 38.084 19.652855 39.427147 20.996 41.084 20.996C 42.740856 20.996 44.084 19.652855 44.084 17.996C 44.084 16.339146 42.740856 14.996 41.084 14.996C 39.427147 14.996 38.084 16.339146 38.084 17.996ZM 32.084 44.995998C 32.084 51.623417 37.456585 56.996002 44.084 56.996002C 50.711418 56.996002 56.084 51.623417 56.084 44.996002C 56.084 38.368584 50.711418 32.996002 44.084 32.996002C 37.456585 32.996002 32.084 38.368584 32.084 44.996002ZM 35.599998 53.48L 52.57 36.510002"/>
          </g>
        </g>
      </g>
      <g id="g-root-tx_labeling_hzn1ml15ei689-stroke" data-item-order="1000000000" transform="translate(592, 119)"/>
      <g id="g-root-tx_clusteri_8d14t15ei8le-stroke" data-item-order="1000000000" transform="translate(490, 191)"/>
      <g id="g-root-ic_scat_de79q515edy4k-stroke" data-item-order="1000000000" transform="translate(598, 179)">
        <g id="ic_scat_de79q515edy4k-stroke" fill="none" stroke-linecap="round" stroke-linejoin="round" stroke-miterlimit="4" stroke="#484848" stroke-width="2" stroke-opacity="1">
          <g>
            <path d="M 11.5 11.5L 11.5 56.5L 56.5 56.5M 20.75 17.5C 20.335781 17.5 20 17.164219 20 16.75C 20 16.335781 20.335781 16 20.75 16M 20.75 17.5C 21.164219 17.5 21.5 17.164219 21.5 16.75C 21.5 16.335781 21.164219 16 20.75 16M 18.75 45.5C 18.335781 45.5 18 45.1642 18 44.75C 18 44.3358 18.335781 44 18.75 44M 18.75 45.5C 19.164219 45.5 19.5 45.1642 19.5 44.75C 19.5 44.3358 19.164219 44 18.75 44M 22.75 27.5C 22.335781 27.5 22 27.164221 22 26.75C 22 26.335779 22.335781 26 22.75 26M 22.75 27.5C 23.164219 27.5 23.5 27.164221 23.5 26.75C 23.5 26.335779 23.164219 26 22.75 26M 16.75 35.5C 16.335781 35.5 16 35.1642 16 34.75C 16 34.3358 16.335781 34 16.75 34M 16.75 35.5C 17.164219 35.5 17.5 35.1642 17.5 34.75C 17.5 34.3358 17.164219 34 16.75 34M 34.75 19.5C 34.3358 19.5 34 19.164219 34 18.75C 34 18.335781 34.3358 18 34.75 18M 34.75 19.5C 35.1642 19.5 35.5 19.164219 35.5 18.75C 35.5 18.335781 35.1642 18 34.75 18M 40.75 39.5C 40.3358 39.5 40 39.1642 40 38.75C 40 38.3358 40.3358 38 40.75 38M 40.75 39.5C 41.1642 39.5 41.5 39.1642 41.5 38.75C 41.5 38.3358 41.1642 38 40.75 38M 52.75 33.5C 52.3358 33.5 52 33.1642 52 32.75C 52 32.3358 52.3358 32 52.75 32M 52.75 33.5C 53.1642 33.5 53.5 33.1642 53.5 32.75C 53.5 32.3358 53.1642 32 52.75 32M 50.75 13.5C 50.3358 13.5 50 13.16422 50 12.75C 50 12.33578 50.3358 12 50.75 12M 50.75 13.5C 51.1642 13.5 51.5 13.16422 51.5 12.75C 51.5 12.33578 51.1642 12 50.75 12M 34.75 49.5C 34.3358 49.5 34 49.1642 34 48.75C 34 48.3358 34.3358 48 34.75 48M 34.75 49.5C 35.1642 49.5 35.5 49.1642 35.5 48.75C 35.5 48.3358 35.1642 48 34.75 48M 54.75 47.5C 54.3358 47.5 54 47.1642 54 46.75C 54 46.3358 54.3358 46 54.75 46M 54.75 47.5C 55.1642 47.5 55.5 47.1642 55.5 46.75C 55.5 46.3358 55.1642 46 54.75 46M 44.75 23.5C 44.3358 23.5 44 23.164219 44 22.75C 44 22.335781 44.3358 22 44.75 22M 44.75 23.5C 45.1642 23.5 45.5 23.164219 45.5 22.75C 45.5 22.335781 45.1642 22 44.75 22M 30.75 35.5C 30.3358 35.5 30 35.1642 30 34.75C 30 34.3358 30.3358 34 30.75 34M 30.75 35.5C 31.1642 35.5 31.5 35.1642 31.5 34.75C 31.5 34.3358 31.1642 34 30.75 34"/>
          </g>
        </g>
      </g>
      <g id="g-root-tx_topicsub_18n6jgd15ei8eb-stroke" data-item-order="1000000000" transform="translate(328, 251)"/>
      <g id="g-root-ic_orga_1hbbunx15efd39-stroke" data-item-order="1000000000" transform="translate(508, 251)">
        <g id="ic_orga_1hbbunx15efd39-stroke" fill="none" stroke-linecap="round" stroke-linejoin="round" stroke-miterlimit="4" stroke="#484848" stroke-width="2" stroke-opacity="1">
          <g>
            <path d="M 27 47.759998C 22.513447 46.091202 17.784643 45.165707 13 45.02C 11.895431 45.02 11 44.124569 11 43.02L 11 14C 11 12.895431 11.895431 12 13 12C 23.82 12.34 33 15.32 33 18.959999C 33 15.32 42.119999 12.34 53 12C 54.104568 12 55 12.895431 55 14L 55 28.98M 33 18.98L 33 24.98M 29 22.459999C 24.802313 21.038824 20.426722 20.210827 16 20M 29 28.52C 24.810371 27.059311 20.431957 26.210571 16 26M 26 33.5C 22.717789 32.704216 19.371244 32.202232 16 32M 24.66 39.18C 21.805859 38.576668 18.911514 38.182285 16 38M 42 21.02C 44.641495 20.505445 47.3139 20.164715 50 20M 29 40.02C 29.000002 47.199703 34.820297 53.02 42 53.02C 49.179703 53.02 55 47.199703 55 40.02C 55 32.840302 49.179703 27.02 42 27.02C 34.820297 27.02 29.000002 32.840302 29.000002 40.02M 50.700001 49.68L 57 55.98M 37 38L 37 35C 37 34.447716 37.447716 34 38 34L 46 34C 46.552284 34 47 34.447716 47 35L 47 38M 42 34.02L 42 46.02M 39 46.02L 45 46.02"/>
          </g>
        </g>
      </g>
      <g id="g-root-tx_preproce_i0vzst15ei8ec-stroke" data-item-order="1000000000" transform="translate(274, 335)"/>
      <g id="g-root-ic_broo_vc3h15egrgu-stroke" data-item-order="1000000000" transform="translate(418, 323)">
        <g id="ic_broo_vc3h15egrgu-stroke" fill="none" stroke-linecap="round" stroke-linejoin="round" stroke-miterlimit="4" stroke="#484848" stroke-width="2" stroke-opacity="1">
          <g>
            <path d="M 56.664001 46.144001C 54.073425 50.460567 50.460567 54.073425 46.143997 56.663998C 45.130566 57.271255 43.824333 57.03632 43.086002 56.114002L 35.447998 46.566002C 32.930622 43.418644 33.182144 38.881802 36.032001 36.032001L 36.031998 36.031998C 38.881802 33.182144 43.418644 32.930622 46.566002 35.447998L 56.113998 43.085999C 57.03632 43.824333 57.271255 45.130566 56.664001 46.144001ZM 32.057999 32.057999L 11 11M 34.615997 37.954002L 32.057999 35.400002C 31.136288 34.478996 31.136288 32.985001 32.057999 32.064003L 32.057999 32.063999C 32.979004 31.142288 34.473 31.142288 35.394001 32.064003L 37.954002 34.622002M 50.318001 53.655998L 42.706001 46.043999M 53.655998 50.318001L 46.043999 42.706001M 16 32L 20 32M 18 30L 18 34M 32 14L 36 14M 34 12L 34 16M 26 54L 30 54M 28 52L 28 56M 42 23L 50 23M 46 19L 46 27M 24.5 43C 24.776142 43 25 43.223858 25 43.5M 24 43.5C 24 43.223858 24.223858 43 24.5 43M 24.5 44C 24.223858 44 24 43.776142 24 43.5M 25 43.5C 25 43.776142 24.776142 44 24.5 44M 15.5 51C 15.776142 51 16 51.223858 16 51.5M 15 51.5C 15 51.223858 15.223858 51 15.5 51M 15.5 52C 15.223858 52 15 51.776142 15 51.5M 16 51.5C 16 51.776142 15.776142 52 15.5 52M 52.5 12C 52.776142 12 53 12.223858 53 12.5M 52 12.5C 52 12.223858 52.223858 12 52.5 12M 52.5 13C 52.223858 13 52 12.776142 52 12.5M 53 12.5C 53 12.776142 52.776142 13 52.5 13"/>
          </g>
        </g>
      </g>
      <g id="g-root-ic_1_1qegjy515egsnb-stroke" data-item-order="1000000000" transform="translate(328, 395)">
        <g id="ic_1_1qegjy515egsnb-stroke" fill="none" stroke-linecap="round" stroke-linejoin="round" stroke-miterlimit="4" stroke="#484848" stroke-width="2" stroke-opacity="1">
          <g>
            <path d="M 28 34.998001C 28 38.311707 30.686293 40.998001 34 40.998001C 37.313709 40.998001 40 38.311707 40 34.998001C 40 31.684292 37.313709 28.998001 34 28.998001C 30.686293 28.998001 28 31.684292 28 34.998001ZM 43 57C 42.375999 50.216 38.534 45 34 45C 29.466 45 25.624001 50.216 25 57ZM 44.599998 44.599998C 50.46323 38.744064 50.467171 29.243198 44.608803 23.382401C 38.750435 17.521603 29.249567 17.521603 23.391201 23.382401C 17.532833 29.243198 17.536774 38.744064 23.400002 44.600002M 50.264 50.262001C 59.245617 41.279785 59.245293 26.717268 50.263275 17.735451C 41.281258 8.753635 26.718742 8.753635 17.736725 17.735451C 8.754709 26.717268 8.754384 41.279785 17.736 50.262001"/>
          </g>
        </g>
      </g>
      <g id="g-root-tx_datasour_1uljev115ejlzh-stroke" data-item-order="1000000000" transform="translate(184, 407)"/>
    </g>
  </g>
</svg>